<svg xmlns="http://www.w3.org/2000/svg" xmlns:xlink="http://www.w3.org/1999/xlink" contentStyleType="text/css" data-diagram-type="CLASS" height="408px" preserveAspectRatio="none" style="width:373px;height:408px;background:#FFFFFF;" version="1.1" viewBox="0 0 373 408" width="373px" zoomAndPan="magnify"><defs/><g><!--class Resource--><g class="entity" data-entity="Resource" data-source-line="255" data-uid="ent0002" id="entity_Resource"><rect fill="#FFFFFF" height="32" rx="2.5" ry="2.5" style="stroke:#181818;stroke-width:0.5;" width="97.1396" x="151.5" y="17.2089"/><ellipse cx="166.5" cy="33.2089" fill="#ADD1B2" rx="11" ry="11" style="stroke:#181818;stroke-width:1;"/><path d="M169.4688,38.8496 Q168.8906,39.1464 168.25,39.2871 Q167.6094,39.4433 166.9063,39.4433 Q164.4063,39.4433 163.0781,37.8027 Q161.7656,36.1464 161.7656,33.0214 Q161.7656,29.8964 163.0781,28.2402 Q164.4063,26.5839 166.9063,26.5839 Q167.6094,26.5839 168.25,26.7402 Q168.9063,26.8964 169.4688,27.1933 L169.4688,29.9121 Q168.8438,29.3339 168.25,29.0683 Q167.6563,28.7871 167.0313,28.7871 Q165.6875,28.7871 165,29.8652 Q164.3125,30.9277 164.3125,33.0214 Q164.3125,35.1152 165,36.1933 Q165.6875,37.2558 167.0313,37.2558 Q167.6563,37.2558 168.25,36.9902 Q168.8438,36.7089 169.4688,36.1308 L169.4688,38.8496 Z " fill="#000000"/><text fill="#000000" font-family="sans-serif" font-size="14" lengthAdjust="spacing" textLength="65.1396" x="180.5" y="38.0556">Resource</text></g><!--class Infrastructure--><g class="entity" data-entity="Infrastructure" data-source-line="283" data-uid="ent0004" id="entity_Infrastructure"><rect fill="#FFFFFF" height="88.8906" rx="2.5" ry="2.5" style="stroke:#181818;stroke-width:0.5;" width="216.8936" x="91.5" y="110.2089"/><ellipse cx="147.6436" cy="126.2089" fill="#ADD1B2" rx="11" ry="11" style="stroke:#181818;stroke-width:1;"/><path d="M150.6123,131.8496 Q150.0342,132.1464 149.3936,132.2871 Q148.7529,132.4433 148.0498,132.4433 Q145.5498,132.4433 144.2217,130.8027 Q142.9092,129.1464 142.9092,126.0214 Q142.9092,122.8964 144.2217,121.2402 Q145.5498,119.5839 148.0498,119.5839 Q148.7529,119.5839 149.3936,119.7402 Q150.0498,119.8964 150.6123,120.1933 L150.6123,122.9121 Q149.9873,122.3339 149.3936,122.0683 Q148.7998,121.7871 148.1748,121.7871 Q146.8311,121.7871 146.1436,122.8652 Q145.4561,123.9277 145.4561,126.0214 Q145.4561,128.1152 146.1436,129.1933 Q146.8311,130.2558 148.1748,130.2558 Q148.7998,130.2558 149.3936,129.9902 Q149.9873,129.7089 150.6123,129.1308 L150.6123,131.8496 Z " fill="#000000"/><text fill="#000000" font-family="sans-serif" font-size="14" lengthAdjust="spacing" textLength="96.1064" x="168.1436" y="131.0556">Infrastructure</text><line style="stroke:#181818;stroke-width:0.5;" x1="92.5" x2="307.3936" y1="142.2089" y2="142.2089"/><text fill="#000000" font-family="sans-serif" font-size="14" lengthAdjust="spacing" textLength="170.8711" x="97.5" y="159.2041">title : Multilingual_String</text><text fill="#000000" font-family="sans-serif" font-size="14" lengthAdjust="spacing" textLength="204.8936" x="97.5" y="175.5009">acronym : Multilingual_String</text><text fill="#000000" font-family="sans-serif" font-size="14" lengthAdjust="spacing" textLength="152.0723" x="97.5" y="191.7978">url : Website_Address</text></g><!--class Instrument_Instance--><g class="entity" data-entity="Instrument_Instance" data-source-line="7" data-uid="ent0006" id="entity_Instrument_Instance"><rect fill="#D8F0D8" height="32" rx="2.5" ry="2.5" style="stroke:#181818;stroke-width:0.5;" width="175.5752" x="7" y="260.2089"/><ellipse cx="22" cy="276.2089" fill="#ADD1B2" rx="11" ry="11" style="stroke:#181818;stroke-width:1;"/><path d="M24.9688,281.8496 Q24.3906,282.1464 23.75,282.2871 Q23.1094,282.4433 22.4063,282.4433 Q19.9063,282.4433 18.5781,280.8027 Q17.2656,279.1464 17.2656,276.0214 Q17.2656,272.8964 18.5781,271.2402 Q19.9063,269.5839 22.4063,269.5839 Q23.1094,269.5839 23.75,269.7402 Q24.4063,269.8964 24.9688,270.1933 L24.9688,272.9121 Q24.3438,272.3339 23.75,272.0683 Q23.1563,271.7871 22.5313,271.7871 Q21.1875,271.7871 20.5,272.8652 Q19.8125,273.9277 19.8125,276.0214 Q19.8125,278.1152 20.5,279.1933 Q21.1875,280.2558 22.5313,280.2558 Q23.1563,280.2558 23.75,279.9902 Q24.3438,279.7089 24.9688,279.1308 L24.9688,281.8496 Z " fill="#000000"/><text fill="#000000" font-family="sans-serif" font-size="14" lengthAdjust="spacing" textLength="143.5752" x="36" y="281.0556">Instrument_Instance</text></g><!--class Instrument_Model--><g class="entity" data-entity="Instrument_Model" data-source-line="14" data-uid="ent0008" id="entity_Instrument_Model"><rect fill="#D8F0D8" height="32" rx="2.5" ry="2.5" style="stroke:#181818;stroke-width:0.5;" width="158.0615" x="87" y="369.2089"/><ellipse cx="102" cy="385.2089" fill="#ADD1B2" rx="11" ry="11" style="stroke:#181818;stroke-width:1;"/><path d="M104.9688,390.8496 Q104.3906,391.1464 103.75,391.2871 Q103.1094,391.4433 102.4063,391.4433 Q99.9063,391.4433 98.5781,389.8027 Q97.2656,388.1464 97.2656,385.0214 Q97.2656,381.8964 98.5781,380.2402 Q99.9063,378.5839 102.4063,378.5839 Q103.1094,378.5839 103.75,378.7402 Q104.4063,378.8964 104.9688,379.1933 L104.9688,381.9121 Q104.3438,381.3339 103.75,381.0683 Q103.1563,380.7871 102.5313,380.7871 Q101.1875,380.7871 100.5,381.8652 Q99.8125,382.9277 99.8125,385.0214 Q99.8125,387.1152 100.5,388.1933 Q101.1875,389.2558 102.5313,389.2558 Q103.1563,389.2558 103.75,388.9902 Q104.3438,388.7089 104.9688,388.1308 L104.9688,390.8496 Z " fill="#000000"/><text fill="#000000" font-family="sans-serif" font-size="14" lengthAdjust="spacing" textLength="126.0615" x="116" y="390.0556">Instrument_Model</text></g><!--link Resource to Resource--><g class="link" data-entity-1="Resource" data-entity-2="Resource" data-source-line="258" data-uid="lnk3" id="link_Resource_Resource"><path codeLine="258" d="M248.89,24.6189 C267.79,24.2389 283.5,27.0989 283.5,33.2089 C283.5,39.3189 267.79,42.1789 248.89,41.7989" fill="none" id="Resource-Resource" style="stroke:#181818;stroke-width:1;"/><polygon fill="#000000" points="288.3995,38.2743,291.5196,29.2902,285.643,29.172,288.3995,38.2743" style="stroke:#000000;stroke-width:1;"/><text fill="#000000" font-family="sans-serif" font-size="13" lengthAdjust="spacing" textLength="57.8398" x="302.5" y="37.7758">is part of</text><text fill="#000000" font-family="sans-serif" font-size="13" lengthAdjust="spacing" textLength="23.0356" x="256.6208" y="19.6328">0..*</text><text fill="#000000" font-family="sans-serif" font-size="13" lengthAdjust="spacing" textLength="23.0356" x="256.6208" y="39.014">0..*</text></g><!--reverse link Resource to Infrastructure--><g class="link" data-entity-1="Resource" data-entity-2="Infrastructure" data-source-line="289" data-uid="lnk5" id="link_Resource_Infrastructure"><path codeLine="289" d="M200,67.3389 C200,82.6089 200,88.8889 200,110.1889" fill="none" id="Resource-backto-Infrastructure" style="stroke:#181818;stroke-width:1;"/><polygon fill="none" points="200,49.3389,194,67.3389,206,67.3389,200,49.3389" style="stroke:#181818;stroke-width:1;"/></g><!--reverse link Infrastructure to Instrument_Instance--><g class="link" data-entity-1="Infrastructure" data-entity-2="Instrument_Instance" data-source-line="10" data-uid="lnk7" id="link_Infrastructure_Instrument_Instance"><path codeLine="10" d="M149.6189,213.0508 C131.0089,234.2308 121.74,244.7789 108.39,259.9689" fill="none" id="Infrastructure-backto-Instrument_Instance" style="stroke:#181818;stroke-width:1;"/><polygon fill="none" points="161.5,199.5289,145.1116,209.0904,154.1262,217.0111,161.5,199.5289" style="stroke:#181818;stroke-width:1;"/></g><!--reverse link Infrastructure to Instrument_Model--><g class="link" data-entity-1="Infrastructure" data-entity-2="Instrument_Model" data-source-line="17" data-uid="lnk9" id="link_Infrastructure_Instrument_Model"><path codeLine="17" d="M219.1203,216.9185 C229.3003,255.3385 233.37,294.4989 214,339.2089 C208.82,351.1589 198.74,361.3889 189.14,369.0589" fill="none" id="Infrastructure-backto-Instrument_Model" style="stroke:#181818;stroke-width:1;"/><polygon fill="none" points="214.51,199.5189,213.3204,218.4553,224.9202,215.3817,214.51,199.5189" style="stroke:#181818;stroke-width:1;"/></g><!--link Instrument_Instance to Instrument_Model--><g class="link" data-entity-1="Instrument_Instance" data-entity-2="Instrument_Model" data-source-line="21" data-uid="lnk10" id="link_Instrument_Instance_Instrument_Model"><path codeLine="21" d="M95.6,292.3089 C96.76,305.5689 100,324.9289 109,339.2089 C116.6,351.2589 128.59,361.4389 139.62,369.0589" fill="none" id="Instrument_Instance-Instrument_Model" style="stroke:#181818;stroke-width:1;"/><polygon fill="#000000" points="116.4876,335.1126,114.5368,325.8042,109.4381,328.7286,116.4876,335.1126" style="stroke:#000000;stroke-width:1;"/><text fill="#000000" font-family="sans-serif" font-size="13" lengthAdjust="spacing" textLength="86.252" x="123" y="335.2758">is instance of</text><text fill="#000000" font-family="sans-serif" font-size="13" lengthAdjust="spacing" textLength="23.0356" x="69.0656" y="312.2153">0..*</text><text fill="#000000" font-family="sans-serif" font-size="13" lengthAdjust="spacing" textLength="24.8066" x="102.5549" y="358.019">0..1</text></g><!--SRC=[fP1D2i8m48NtFSKOTqBJkYiYRef25svw0Ob9AeKcaVoirBkRs58eXY8rPF66cNdlOm00LgsadMFSk2jWdFbV7klgb9PAyuorvAQ9C1dr5RuxqQse4aB911QirjmefobVj5p9HXDZjQFMQPxq7iOIROD39KDBS6alGH8vf8H7Es8CeCW8WZKhcfmLy1YdNyaeqJGJmVwPfd6Z7eTBvc5csCwAyMu6xDF_cwft-H7fwrpnGw4Sums2aEJL5iMmTz0QQ8SLK0qS9Wnl]--></g></svg>